<svg xmlns="http://www.w3.org/2000/svg" viewBox="0 0 303.2 322.68"><title>Logo</title><g id="Layer_2" data-name="Layer 2"><g id="Layer_1-2" data-name="Layer 1"><path d="M67.12,45.52c8.28,1,14.48,8.27,22.76,5.17,12.41-5.17,27.93-5.17,38.27-10.35,9.31,3.1,13.45-8.28,21.73-7.24C153,33.11,153,29,157.12,31c8.27-3.1,18.62-6.2,26.9-7.24,8.27-6.21,17.58-2.07,26.89-6.21,14.49,4.14,22.76,0,36.21,3.1,5.17-3.1,8.28,7.24,13.45,0,0-4.14-3.11-6.2-3.11-11.38C248.16,7.24,239.89,3.11,231.61,0,224.37,4.14,213,0,205.74,5.17c-6.2,0-11.38,3.11-17.58,2.07-4.14,2.07-11.38,3.1-15.52,5.17-6.21,2.07-11.38,2.07-17.59,4.14-4.14,0-8.27,2.07-12.41,3.11-7.24-2.07-14.49,4.14-20.69,3.1C111.6,27.93,100.22,30,88.84,31c-5.17-1-8.27,3.11-12.42,2.07-3.1,7.24-12.41,1-15.52,7.24C63,42.42,67.12,41.38,67.12,45.52Z"/><path d="M299.89,258.64c-5.17,0-4.14-7.24-10.35-6.21-3.1-3.11-6.21-3.11-9.31-4.14-9.31,0-17.59-5.17-25.86,1-4.14-4.14-7.24,1-11.38,1-5.17,1-10.35,2.07-14.48,2.07-3.1,1-7.24,0-10.35,2.07-10.35-1-19.65,3.11-31,2.07-3.1,4.14-6.21,1-9.31,2.07-5.17,2.07-10.35,0-14.48,3.1-2.07-1-4.14,4.14-6.21,0-2.07,5.17-8.28,1-12.42,4.14-5.17-4.14-11.38,1-17.58-2.07-11.38,7.24-23.8,0-34.14,4.14-3.1,0-5.17,0-7.24-2.07-4.14,3.11-9.31-1-14.49,1a5.7,5.7,0,0,1-5.17-3.1c-4.14-1-9.31-2.07-12.41-4.14-7.24-5.17-7.24-15.52-9.31-23.79-1-3.1,1-9.31-3.11-10.35,4.14-10.35-1-19.66,2.07-31,0-10.35,1-22.76,1-33.11,4.14-9.31,0-16.55,3.1-25.86-2.07-14.48,5.17-26.89,3.1-42.41C45.39,87.94,40.22,79.66,33,82.77a6.29,6.29,0,0,0-4.14,9.31c-6.21,8.27-3.11,18.62-5.17,26.9,2.07,6.2-3.11,13.45-1,19.66-2.07,11.38-2.07,23.79-3.11,35.17,1,8.27-1,18.62,1,27.93-2.07,13.45,0,26.89,3.11,40.35,0,1-1,3.1,1,4.14,0,15.52,13.45,24.83,21.73,36.21,3.11-2.07,7.24,5.17,8.28-1l3.1,3.11c7.24,0,15.52,3.1,23.79,3.1,3.11-3.1,8.28-1,11.38,0,4.14-7.24,11.38-1,17.59-1,6.21-4.14,13.45,1,18.62-4.14,3.11,1,5.17,2.07,8.28,1,13.45-2.07,27.93-5.17,42.41-2.07,1-1,1-3.1,2.07-4.14,6.21,3.1,12.42,3.1,19.66,1,3.11,4.14,5.17-3.11,8.28-1,6.2-2.07,13.45-1,20.69-2.07,6.2-8.27,14.48,3.11,19.65-3.1,0,4.14,5.17,1,6.21,1,5.17,2.07,10.34,0,15.52-1,7.24,3.1,13.45-2.07,20.69-1,4.14-3.1,7.24-2.07,10.35-7.24C304,261.74,300.92,260.7,299.89,258.64Z"/><path d="M283.46,82.88c-.73-7.34-8.08-5.87-12.48-8.81-3.67,0-8.81-2.94-11,2.21-2.94-.74-2.94-2.94-3.67-5.14-4.4.73-10.28.73-14.69,2.21-6.61,0-10.28,6.61-17.62,5.87-9.55-.73.73-8.81-5.88-12.49-9.55-2.2-14.69-12.48-23.5-17.62l-.13-.16a4,4,0,0,1-1.19-.69l-.7-.3c-.34-.17-.66-.37-1-.55l-.53-.27-.14,0L190.7,47A32.32,32.32,0,0,1,192,50.27c.12.36.21.73.3,1.1,3.56,4.06,6.45,9,5.22,13.89C199,71.13,199,77.74,199,84.35c-2.94,6.61-11.75,5.87-17.62,8.08-4.41,3.67-9.55,2.21-14.69,5.14-8.08,0-14,8.81-22,5.14C140.26,91,127,87.29,119,79.21c.74,3.67,1.47,8.08,4.41,11.75-4.41,7.34,5.87,16.89-4.41,21.3-8.81-.73-16.15,4.41-24.23,7.34-16.16,1.47-30.85,8.08-46.27,12.49-4.4,2.2-8.08,0-11.75,2.94C25,139.43,11.75,139.43,0,138.7a261,261,0,0,0,22.76,16.89c5.14-.73,6.61,5.88,11.75,3.67,7.34,1.47,15.42-3.67,23.5-3.67,5.87-3.67,13.22-3.67,19.09-8.08,8.81-1.47,15.42-6.61,23.5-8.08,4.41-4.41,11.75-2.94,16.89-6.61,1.47,0,4.4-2.2,5.87,0,1.47,8.81-.74,16.16-.74,25,2.21,1.47.74,4.4,0,5.87.74,9.55-4.41,23.5,4.41,31.58,2.94,2.21,5.87-1.47,8.81,0,5.14.73,0-5.87,5.87-5.14.74-1.47,2.94-4.41.74-5.88,1.47-16.15,1.47-33,2.94-49.2,0-3.67-1.47-8.81,1.47-12.49,5.14-2.2,11.75-2.94,16.89-6.61,11.75-.74,22-8.08,34.52-7.34,1.47.73,2.94,1.47,2.94,3.67-2.94,8.81,0,16.16-1.47,25a26.08,26.08,0,0,1,1.47,7.34c1.47,5.88-1.47,11.75-2.21,16.89,2.94,10.28-.73,22.76-.73,33-2.2,5.14,1.47,12.48-1.47,17.62,1.47,5.87,1.47,11.75,1.47,18.36-.74,1.47-1.47,4.41,0,5.88,0,22,0,47-2.94,69,2.94,5.14-1.47,13.22,5.88,15.43,1.47,1.46,5.14,2.93,7.34.73,5.87-2.94.73-10.28,5.14-14,3.67-6.6-2.2-11.75,1.47-18.36-2.2-3.67,0-8.08,0-12.48,0-5.14-2.2-9.55.73-14-2.94-2.94,1.47-5.87-2.21-8.81,5.14-5.14.74-11.75,2.21-18.36,0-12.48-.73-27.17,4.41-38.92-5.88-7.34-4.41-14.69-3.67-23.5-2.21-5.87,1.47-11.75.73-17.62-1.47-7.34,0-14-1.47-20.56,2.2-8.81.73-19.09,1.47-27.91S229.12,102,235,99.77c5.14-.73,8.81-3.67,14.68-2.94,5.14-3.67,13.22,0,16.9-6.61,4.4,1.47,9.54-3.67,13.95,0C284.94,89.49,282,85.82,283.46,82.88Z"/></g></g></svg>